<?xml version="1.0" encoding="utf-8"?>
<!-- Generator: Adobe Illustrator 22.1.0, SVG Export Plug-In . SVG Version: 6.00 Build 0)  -->
<svg version="1.1" id="Capa_1" xmlns="http://www.w3.org/2000/svg" xmlns:xlink="http://www.w3.org/1999/xlink" x="0px" y="0px"
	 viewBox="0 0 1920 1080" style="enable-background:new 0 0 1920 1080;" xml:space="preserve">
<style type="text/css">
	.st0{fill:#1F2540;}
</style>
<path class="st0" d="M1395.5,541.3V336.1c0-54.4,0-132.7,0-162.7h-193.8c-201.4,0-630.1,0-678.1,0c0,63.4,0,669.6,0,733
	c63.5,0,808.5,0,871.9,0C1395.5,874.8,1395.5,708.2,1395.5,541.3z M743.4,200.3c5.7-5.7,11.4-5.7,17.1,0l148.1,148.1l-17.1,17.1
	L743.4,217.4C737.7,211.6,737.7,206,743.4,200.3z M629.3,234.4c5.7-11.4,22.8-11.4,34.2,0l17.1,17.1c22.8-17.1,45.6-22.8,51.3-17.1
	l210.9,210.8l-57,51.3c-17.1,17.1-39.9,45.6-39.9,45.6L635.1,331.3c-5.7-5.7,0-28.5,17.1-51.3l-22.9-11.4
	C623.6,257.2,617.9,245.8,629.3,234.4z M834.6,815.6c-57,57-142.4,91.2-233.6,34.2c79.7-5.6,45.5-102.5,102.5-159.5
	c56.9-57,102.5-45.6,136.8-11.5C880.2,713.1,891.6,758.6,834.6,815.6z M988.3,678.9c0,0,28.5-17.1,45.6-39.9l51.3-62.7L1267.5,753
	L1165,855.5L988.3,678.9z M1210.6,866.9l68.3-68.3c5.7,39.8,17.1,85.4,17.1,85.4S1250.5,878.3,1210.6,866.9z M1301.7,262.9
	l-284.8,336.2c-17.1,17.1-28.5,28.5-51.3,45.6L920,678.9c-17.1,17.1-51.3,11.4-68.4-5.7l-5.7-5.7c-17.1-17.1-22.8-45.6-5.7-68.4
	l34.2-39.9c11.4-22.8,28.5-34.2,45.6-51.3L1256.2,223c22.8-17.1,45.6-22.7,57-11.4C1324.5,223.1,1318.8,245.8,1301.7,262.9z"/>
<path class="st0" d="M0,0v1080h1920V0H0z M1468.5,979.6h-1018V100.4h1018V979.6z"/>
</svg>
