<?xml version="1.0" encoding="utf-8"?>
<!-- Generator: Adobe Illustrator 22.1.0, SVG Export Plug-In . SVG Version: 6.00 Build 0)  -->
<svg version="1.1" id="Capa_1" xmlns="http://www.w3.org/2000/svg" xmlns:xlink="http://www.w3.org/1999/xlink" x="0px" y="0px"
	 viewBox="0 0 1920 1080" style="enable-background:new 0 0 1920 1080;" xml:space="preserve">
<style type="text/css">
	.st0{fill:#1F2540;}
</style>
<path class="st0" d="M0,0v1080h1920V0H0z M1263.1,990.2c0,38.6-32.7,71.3-71.3,71.3H728.3c-38.6,0-71.3-32.7-71.3-71.3V89.9
	c0-38.6,32.7-71.3,71.3-71.3h463.5c38.6,0,71.3,32.7,71.3,71.3V990.2z"/>
<path class="st0" d="M960,954.5c-20.8,0-35.7,11.9-35.7,32.7c0,20.8,14.9,35.7,35.7,35.7c20.8,0,35.7-14.8,35.7-32.7
	C995.7,969.3,980.8,954.5,960,954.5z"/>
<path class="st0" d="M885.7,86.9h148.6c5.9,0,8.9-3,8.9-8.9s-3-8.9-8.9-8.9H885.7c-5.9,0-8.9,3-8.9,8.9
	C876.8,83.9,879.8,86.9,885.7,86.9z"/>
<path class="st0" d="M707.5,128.5v799.2h505.1c0,0,0-799.2,0-799.2H707.5z M1192.7,908.6H727.3V147.6h465.3
	C1192.7,147.6,1192.7,908.6,1192.7,908.6z"/>
<path class="st0" d="M1059.5,613.9c3.5,3.5,8.2,5.3,12.8,5.3s9.3-1.8,12.8-5.3L1176,523c7.1-7.1,7.1-18.6,0-25.7l-90.9-90.9
	c-7.1-7.1-18.6-7.1-25.7,0c-7.1,7.1-7.1,18.6,0,25.7l78,78l-78,78C1052.4,595.3,1052.4,606.8,1059.5,613.9z"/>
<path class="st0" d="M920.2,691.6c1.2,0.2,2.4,0.3,3.5,0.3c8.5,0,16.1-6,17.8-14.7l64.3-327.2c1.9-9.8-4.5-19.4-14.3-21.3
	c-9.8-1.9-19.4,4.5-21.3,14.3l-64.3,327.2C903.9,680.1,910.3,689.6,920.2,691.6z"/>
<path class="st0" d="M834.9,613.9c3.5,3.5,8.2,5.3,12.8,5.3c4.6,0,9.3-1.8,12.8-5.3c7.1-7.1,7.1-18.6,0-25.7l-78-78l78-78
	c7.1-7.1,7.1-18.6,0-25.7c-7.1-7.1-18.6-7.1-25.7,0L744,497.3c-3.4,3.4-5.3,8-5.3,12.8s1.9,9.4,5.3,12.8L834.9,613.9z"/>
</svg>
