<?xml version="1.0" encoding="utf-8"?>
<!-- Generator: Adobe Illustrator 22.1.0, SVG Export Plug-In . SVG Version: 6.00 Build 0)  -->
<svg version="1.1" id="Calque_1" xmlns="http://www.w3.org/2000/svg" xmlns:xlink="http://www.w3.org/1999/xlink" x="0px" y="0px"
	 viewBox="0 0 1920 1080" style="enable-background:new 0 0 1920 1080;" xml:space="preserve">
<style type="text/css">
	.st0{fill:#00969D;}
</style>
<path class="st0" d="M0,0v1080h1920V0H0z M778.1,1043.5c-183.7,0.3-336.8-152.9-335.7-336c1.2-184.7,152.5-334.8,337.2-334.6
	c182.3,0.2,332.2,150.8,332.5,334.1C1112.3,892.5,962.8,1043.1,778.1,1043.5z M1476.2,875c-0.1,11.8-11.9,31.9-21.1,33.8
	c-25.1,5-24.7-17-24.7-34.3c-0.2-186.5-1.1-372.9,0.6-559.4c0.3-37.7-10.2-55.2-48.2-66.5C1203,195.3,1024.3,138.4,845.1,83
	c-12.5-3.9-25.6-7.6-38.5-8.2c-29-1.3-53.7,7.9-59.2,40.1c-5.3,30.9,14,44.1,41.4,52.6c166.6,51.5,332.5,105,499.4,155.4
	c33.8,10.2,46,25.3,45.6,60.7c-2.8,212.9-3.4,425.8-5,638.6c-0.4,47.7-6.1,51.9-50.7,38c-84-26.1-168-52.6-255.7-80.1
	c122-129.1,156.8-274,80.8-429.7c-82.1-168-228.2-225-414.7-198c0-87.3-5.7-171.9,1.9-255.4c5.8-63.1,83.6-99.5,153.9-78
	c200.9,61.3,401,124.9,601.7,186.8c22.3,6.9,31.9,18.2,31.8,42.3C1476.9,457.1,1477.5,666,1476.2,875z"/>
<path class="st0" d="M779.9,616.7c-50-1.4-94.2,42.3-93.7,92.4c0.5,48.5,43,90.7,91.5,90.9c49,0.2,90.2-40.9,90.9-90.7
	C869.3,659.6,829.5,618,779.9,616.7z M777.4,759.7c-30.1-0.2-52.1-22.8-51.6-52.9c0.5-30.1,23.3-51.4,54.2-49.8
	c31.6,1.7,48,20.3,49.8,50.6C831.6,737,807.2,759.9,777.4,759.7z"/>
<g>
</g>
<g>
</g>
<g>
</g>
<g>
</g>
<g>
</g>
<g>
</g>
</svg>
