<?xml version="1.0" encoding="utf-8"?>
<!-- Generator: Adobe Illustrator 22.1.0, SVG Export Plug-In . SVG Version: 6.00 Build 0)  -->
<svg version="1.1" id="Calque_1" xmlns="http://www.w3.org/2000/svg" xmlns:xlink="http://www.w3.org/1999/xlink" x="0px" y="0px"
	 viewBox="0 0 612.1 1254.6" style="enable-background:new 0 0 612.1 1254.6;" xml:space="preserve">
<style type="text/css">
	.st0{fill:#1F2540;}
</style>
<g id="CMR0">
	<g>
		<path id="_x31__10_" class="st0" d="M552.3,897.9l-5.7,2.7l-17.2,8.2l-22.5,11.9l-2.8,7l-4.4,9l-2.5,2.9l-15.5,10.7l-14.1,18.2
			l-12.8,17.6l-4.8,4.3l-4.3,2.8l-3.8,0.1l-4.1-0.9l-4.3-0.7l-5.7-0.1l-5.2,1.9l-4.1,4.4l-22.6,33.8l-1,7.4l-0.9,6.7l7,18.9
			l7.6,20.7l6.6,21.3l3.9,29.3l-2,7.2l-8.1,21l-1.7,3.9l-19.2,24.7l-15.2,22.3l-13.5,18.5l-4.2,3l-3.5-0.1l-15.8,4.3l-14.6,6.7
			l-15,7.7l-0.4-2.5l-2-9.7l-7.9-36.4l-4.7-21.8l-7.9-36.3l-7.4-33.9l-5.3-24.2l-12.8-58.1l-4.8-21.8l-11.3-50.8l-3.5-15.4
			l-3.8-16.8l-7.3-6l-21.5-15.6l-26.4-19l-19.2-13.7l-21.7-15.4l-9.6-7l-0.4-0.4l-0.9-7.1l-2.9-24l-0.6-4.9l-1.1-9.6l-0.9-7.2
			l-4.8-7.5L99.6,763l-11.9-14.6l-4.9,0.6l-3.9-1.1l-38.5-17.2l-2.9-3.1l-1.7-3.4l-0.8-6.7l-0.3-5.6l0-9.6l0-4.6l0-3.6l-7.4-15.6
			L9.8,649l-6.3-23.6L0,611.8l0-5.7l1.2-4.9l1.2-3.6l1.4-6.4l-0.4-11.9l0.4-2l1.6-3.7L20,557.7l3.5-2.5l4.9-2l3-0.7l4.4-0.4l4.2-1.2
			l3.7-3l5.7-15.5l0.3-7.4l3.1-6.5l3.6-3.2l25-12.9l5.1-2.2l5.4-1.9l2.1-0.9l7.6-1l2.3-3.6l5.2-2.2l4.2,1.1l0.2-3.7l0.6-3.7l2.2-1.5
			l0.6-3.3l-0.2-5.8l0.2-5l3.1-4l-1.1-4.6l-1.5-16.3l1.6-21.6l6.5-25.2l10.7-14.7l-9.1-17.3l-3.2-4l-1.6-4.6l-0.9-6.1l0.1-4.4
			l1.4-6.5l1.5-3.9l1.8-10.1l2.2-12.2l-0.5-6.9l-0.1-3.6l-1-6.7l-2.1-3.9l-3.8-3.6l-2.9-3.7l-1.2-3.6l-1.3-8.7l-0.3-7l0.9-11.5
			l2-7.1l0.4-0.6l1.2-6.1l2.2-17.2l2.1-18.9l2.2-15.2l5.7-11.6l0.4-3.1l0.3-7.9l-0.9-5.7l-11.9-5.1l-6.7,0l-4.6-0.4l-4.2-2.1
			l-0.8-1.7l0.7-3.9l3.2-5.1l5-2.3l16.3-6.1l15-10l3.8-10.5l0.1-4.1l24.2-15.4l-0.9-8.9l-1.5-10.5l6.8-2.2l14.8-1.5l9.1-3l4.7-2.8
			l3-2.1l2.8-2.1l2.9-2.1l3.7-3.7l2.8-3.3l2.1-2.8l1.8-4.3l8.6-7.3l3.4-1.5l2.2-0.3l11.6-4.5l4.5-0.4l0.2-4.6l3.9-2.3l2.2-1.5
			l0.6-4.1l3.4,0.2l2.9,1.4l4.6,0.3l1.8-2.4l6.3,0.4l2.2-1.1l3.9-1.9l3.4-1.5l2.2-2l5.1,0.3l4.2,0.2l3.5-1.9l2.6-2.3l2.6-1.5
			l3.4-0.6l1.6,0.9l3.1,1.6l2.9,0.6l2.4-1.5l2.9-3.2l1.8-3l6.8-1.3l9.5,0.3l3.6,0.2l3.5,1.2l3.2,0.2l1.9,0.9l2.1,1.4l1.6,1.6
			l0.9,2.6l0.9,3.4l-0.8,2.9l-3.3,3.1l-4.5,1.5l-6.2,3.3l-4.6,2.1l1,7.9l3.6,4.9l4.5,1.8l3.3,0.1l3.1-1.2l3.2-2.4l3.6-7.9l-4.5-6.2
			l1-3.1l4.3-2.9l2.8-1.5l3.2,0.2l1.6,1.8l1.9,0.5l2.2,2.1l5.8-0.8l21.9,8.8l9.1,5.6l-6.4,2.9l-9.8-0.8l-2.2,3.9l8.9,3.2l3.1-0.1
			l-6.3,11.3l0.4,4.3l4.2,9.3l4.2,3.7l7.9,4l1.8,1.4l2.9,1.4l2.3,0.4l0.4,0.4l1.2,0l0.3,1.1l-0.6,1.2l0.5,1.1l0.9,1.6l2.2,1.8l1.1,1
			l-0.1,0.8l-1.6,0.9l-0.1,0.8l-0.5,0.8l-1.3,1.3l-0.3,1.4l-0.3,0.5l-0.6,0.6l-0.5,0.7l-0.5,0.8l-1,0.6l-0.1,1.1l0,0.6l0.2,0.8
			l-1.1,1l-1.3,1.2l-0.2,1.4l0.9,1.8l0.7,1.8l1.1,1.7l1.1,1l1.5,2.2l1.2,0.9l1.3,0.8l1.2,0.8l1.7,0.5l2.2,0.7l1.3,0.1l1.7-0.4l3.1-1
			l3.4-1.6l3.8-2.4l6-4.1l3.4-7.4l2.9-7l4.9-3.7l3.5,0.3l4.8-0.1l3.4-0.3l5.3-1.4l10.1-7.2l5.8-4.1l7.4-8l3.8-7.6L531,49l4.3,6.1
			l1.1,5.5l4.1,20.4l-3.8,6.3l-6.1,10.1l-2,2.2l-6.2,6.8l-2,2.9l-5.3,8.5l-5.2,8.3l-4.9,9.9l-4.2,8.7l-2.2,7l-1.4,3.6l-2.5,3.1
			l-4.6,1.2l-3.7,0.9l-3.2,1.1l-6.9,2.3l-15.2,6.4l-3.7,2.4l-2.6,2.3l-1.2,1.4l-1.4,2.1l-2.2,4l-2.6,7.2l-1.7,5.7l-2,13.4l0,3.5
			l0,7.4l2.3,10.7l1.2,3.4l2.6,2.9l2.3,1.4l2.7,0.9l0.6,3.5l0.6,3.1l0.4,2.9l2.1,2.1l1.8,1.6l2.3,2.8l2.4,3.9l2.2,3.4l1.4,1.7
			l1.4,1.7l1.2,1.7l1.6,1.9l1.7,2.1l3,2.9l1.6,1.9l2.4,3.3l1.9,1.1l1.7,1.1l1.8,1.2l2.4,0.3l2.3,0.3l1.6,0l1.3-0.7l1.3-1.6l2.1,0.1
			l2.1,0.6l1.4-1.1l0.8,1l1.8,1.7l-0.1,2.8l-1.4,1.5l-1.3,1.1l-0.1,1.4l1.1,2.7l0.5,2l1.3,1.6l0.9,1l1.7,0.6l1.5-0.4l3.1,0.4l0.6,1
			l2.1,0.4l0.6,0.8l1.7,0.6l1.7,1.3l2.7,0.8l2.2-0.1l1.4,1.5l2.1,1.5l2.2,0.4l2.6,1.8l0.9,0.9l3,1.4l0.8,2.1l-1.3,2.2l-1,2.4
			l-0.7,1.4l-0.7,1l0.9,2.7l0.5,2.5l2,2.6l2.2,1.8l-1.9,4.9l0,3.9l-2.5,3.6l0.7,4.2l-0.2,3.9l-0.1,2.1l-3.4,0.2l-0.1,3.3l2.3,5.1
			l2,3.2l1.8,2.2l0.5,2.1l2.2,2.8l4.3,3.1l4.1,3.1l0.7,2.5l-0.1,2.1l-2.5-0.8l-2.9-1l-1.8,1.8l-0.5,2.7l-0.1,2.9l-1.5,1.6l-1.5,0.3
			l-2.2,2.1l-1.2,3.2l-0.8,4.5l-1.2,3.2l-0.1,3.5l0.7,4.4l0.3,2.5l-0.4,3.7l-2.4,3.2l-2.2,1.3l-4.2,1.2l-3,1.9l-1.1,1.6l-1.2,3.4
			l0.1,3.5l0.6,5l-1.5,4.7l-3.3,3.7l-3.1,3.5l-1.4,4.1l-2.6,2.1l-1.5,1.4l-0.1,3.5l-2.6,1.9l-4.3,2.2l-3.6,2.1l-2.6,1.7l-0.5,4
			l-1,2.7l2,3.5l-1.7,2.4l-2.9,2.9l-5.4,2.4l-7.7,4.3l-0.9,2.2l-3,1.3l0.2,5.8l-0.2,5.4l-10.5,1.5l-5.4-0.3l-3,2.7l-5.3,5.5
			l-5.2,4.7l-4.8,3.9l-2.6,1.1l-0.2,4.1l-2.6,1.1l-7.9-1.3l-2.7,4l-2.6,1.9l-3.5,3.5l-5.9,0.1l-2.6,2.7l-2.6,2.7l-5.6,2.6l-5.1,1.8
			l-1.8,3.2l-0.2,5.4l-1,4.9l-4.2,10.1l-0.3,7l0.6,6.2l0.4,9.5l0.6,10.4l2.5,3.7l4.7,6.7l5.8,8.3l3.1,2.9l3.2,3l2.8,2.7l5.9,5.6
			l7.2,6.3l2.6,2.2l3.6,2.5l5.1,2.3l10,3.9l3.2,2.1l7.8-1.9l11.3-3.9l3.9-2.2l4.1-3.1l5.3-1.9l3.2,1.5l1.3,4.3l-1.1,13l6.3-1.2
			l-0.2,5.8l-0.6,4.5l-6.9,5.4l-2.4,5.6l9,3.2l23.7-11l3-5.4l-1.4-4.6l-2.8-3.6l4.7-2.9l6.9-1.2l6.9,2l4.5,2.3l3.5,3.3l1.9,3
			l2.3,4.8l1.1,4.8l-0.1,5.2l-1.5,5.6l-0.4,5.4l1.8,15.2l1.2,10.2l8,13.3l25.2,4.8l3.3,0.2l10-1.3l7.5,0.2l6.6,2.9l-0.2,4.3
			l-0.4,3.7l-0.8,4.1l-1.8,4.9l-1.6,5.5l-1.5,17.7l-1,13.9l-1.6,37.5l0.9,5l3.2,4.2l3.4,3.1l3,2.4l3.2,3.8l3.2,7.5l0.2,5.7l-2.1,5
			l-2.5,2.4l-5.3,3.3l-4.9,3.4l-10.3,6.5l-13.3,5.9L552.3,897.9L552.3,897.9z M375.9,563.1l-3.2,4.4l2.3-3.6L375.9,563.1z
			 M544.4,474.3l-0.9,2.9l-0.1,3.4l-0.5,3.4l-2.6,3.8l-4.7,3.8l-4.5-2.8l-5.1-5.1l0-2.9l4.9-1.7l4.3,0.2l5.6-2.4l1.8-3.7l0.7-4.5
			l1.2-1.8l16.1-19.7l4.8,0.8l2.7,1.1l2.2,1.5l-3,10.7l-3.8,1.9l-5.3,2l-4.4,1.7l-2.3,1.3l-5.7,4.7L544.4,474.3L544.4,474.3z
			 M510.8,646l-3.3,3.6l-1.6,3.3l-1.1,2.7l-0.5-8l-0.7-2.2l-0.9-1.5l-1.7-2l-2.5-2.3l-2.3-0.8l-1.7,0l-2.6,1l-1.7,2.2l-1,1.7
			l-2.9-0.1l-1.5-0.8l-1.7-3.4l-0.7-2.2l0-2.9l0.7-7.4l0.3-2.8l1-11.4l1.2-1.3l4.5-0.9l4.7-0.1l17.3,3.2l8.4,3.6l8.6,5.5l2.6,1.7
			l1.4,1.6l0.4,2.5l-0.9,1.5l-6.2,5.3l-2.1,0.9l-8.4,4.7L510.8,646L510.8,646z"/>
	</g>
</g>
</svg>
