<?xml version="1.0" encoding="utf-8"?>
<!-- Generator: Adobe Illustrator 22.1.0, SVG Export Plug-In . SVG Version: 6.00 Build 0)  -->
<svg version="1.1" id="Calque_1" xmlns="http://www.w3.org/2000/svg" xmlns:xlink="http://www.w3.org/1999/xlink" x="0px" y="0px"
	 viewBox="0 0 2442.6 1374" style="enable-background:new 0 0 2442.6 1374;" xml:space="preserve">
<style type="text/css">
	.st0{fill:#00949C;}
</style>
<path class="st0" d="M0,0v1374h2442.6V0H0z M1484.1,505.1l2.7,1.1l2.2,1.5l-3,10.8l-3.9,1.9l-5.4,2l-4.5,1.7l-2.3,1.3l-5.8,4.8
	l-1.4,1.4l-0.9,2.9l-0.1,3.4l-0.5,3.4l-2.6,3.9l-4.8,3.9l-4.6-2.8l-5.2-5.2v-2.9l5-1.7l4.4,0.2l5.7-2.4l1.8-3.7l0.7-4.6l1.2-1.8
	l16.3-20L1484.1,505.1z M1451.8,688l-0.9,1.5l-6.3,5.4l-2.1,0.9l-8.5,4.8l-5.2,5.2l-3.3,3.6l-1.6,3.3l-1.1,2.7l-0.5-8.1l-0.7-2.2
	l-0.9-1.5l-1.7-2l-2.5-2.3l-2.3-0.8h-1.7l-2.6,1l-1.7,2.2l-1,1.7l-2.9-0.1l-1.5-0.8l-1.7-3.4l-0.7-2.2v-2.9l0.7-7.5l0.3-2.8l1-11.6
	l1.2-1.3l4.6-0.9l4.8-0.1l17.5,3.2l8.5,3.6l8.7,5.6l2.6,1.7l1.4,1.6L1451.8,688z M1529.2,929.4l-2.5,2.4l-5.4,3.3l-5,3.4l-10.4,6.6
	l-13.5,6l-21.6,9.7l-5.8,2.7l-17.4,8.3l-22.8,12.1l-2.8,7.1l-4.5,9.1l-2.5,2.9l-15.7,10.8l-14.3,18.4l-13,17.8l-4.9,4.4l-4.4,2.8
	l-3.9,0.1l-4.2-0.9l-4.4-0.7l-5.8-0.1l-5.3,1.9l-4.2,4.5l-22.9,34.2l-1,7.5l-0.9,6.8l7.1,19.1l7.7,21l6.7,21.6l4,29.7l-2,7.3
	l-8.2,21.3l-1.7,4l-19.5,25l-15.4,22.6l-13.7,18.7l-4.3,3l-3.5-0.1l-16,4.4l-14.8,6.8l-15.2,7.8l-0.4-2.5l-2-9.8l-8-36.9l-4.8-22.1
	l-8-36.8l-7.5-34.3l-5.4-24.5l-13-58.9l-4.9-22.1l-11.4-51.5l-3.5-15.6l-3.9-17l-7.4-6.1l-21.8-15.8l-26.7-19.3l-19.5-13.9l-22-15.6
	l-9.7-7.1l-0.4-0.4l-0.9-7.2l-2.9-24.3l-0.6-5l-1.1-9.7l-0.9-7.3l-4.9-7.6l-17.8-27.5l-12.1-14.8l-5,0.6l-4-1.1l-39-17.4l-2.9-3.1
	l-1.7-3.4l-0.8-6.8l-0.3-5.7v-9.7v-4.7v-3.6l-7.5-15.8l-17.7-29.9l-6.4-23.9l-3.5-13.8v-5.8l1.2-5l1.2-3.6l1.4-6.5l-0.4-12.1l0.4-2
	l1.6-3.7l14.8-16.1l3.5-2.5l5-2l3-0.7l4.5-0.4l4.3-1.2l3.7-3l5.8-15.7l0.3-7.5l3.1-6.6l3.6-3.2l25.3-13.1l5.2-2.2l5.5-1.9l2.1-0.9
	l7.7-1l2.3-3.6l5.3-2.2l4.3,1.1l0.2-3.7l0.6-3.7l2.2-1.5l0.6-3.3l-0.2-5.9l0.2-5.1l3.1-4.1l-1.1-4.7l-1.5-16.5l1.6-21.9l6.6-25.5
	l10.8-14.9L1040,421l-3.2-4.1l-1.6-4.7l-0.9-6.2l0.1-4.5l1.4-6.6l1.5-4l1.8-10.2l2.2-12.4l-0.5-7l-0.1-3.6l-1-6.8l-2.1-4l-3.9-3.6
	l-2.9-3.7l-1.2-3.6l-1.3-8.8l-0.3-7.1l0.9-11.7l2-7.2l0.4-0.6l1.2-6.2l2.2-17.4l2.1-19.1l2.2-15.4l5.8-11.8l0.4-3.1l0.3-8l-0.9-5.8
	l-12.1-5.2h-6.8l-4.7-0.4l-4.3-2.1l-0.8-1.7l0.7-4l3.2-5.2l5.1-2.3l16.5-6.2l15.2-10.1l3.9-10.6l0.1-4.2l24.5-15.6l-0.9-9l-1.5-10.6
	l6.9-2.2l15-1.5l9.2-3l4.8-2.8l3-2.1l2.8-2.1l2.9-2.1l3.7-3.7l2.8-3.3l2.1-2.8l1.8-4.4l8.7-7.4l3.4-1.5l2.2-0.3l11.8-4.6l4.6-0.4
	l0.2-4.7l4-2.3l2.2-1.5l0.6-4.2l3.4,0.2l2.9,1.4l4.7,0.3l1.8-2.4l6.4,0.4l2.2-1.1l4-1.9l3.4-1.5l2.2-2l5.2,0.3l4.3,0.2l3.5-1.9
	l2.6-2.3l2.6-1.5l3.4-0.6l1.6,0.9l3.1,1.6l2.9,0.6l2.4-1.5l2.9-3.2l1.8-3l6.9-1.3l9.6,0.3l3.6,0.2l3.5,1.2l3.2,0.2l1.9,0.9l2.1,1.4
	l1.6,1.6l0.9,2.6l0.9,3.4l-0.8,2.9l-3.3,3.1l-4.6,1.5l-6.3,3.3l-4.7,2.1l1,8l3.6,5l4.6,1.8l3.3,0.1l3.1-1.2l3.2-2.4l3.6-8l-4.6-6.3
	l1-3.1l4.4-2.9l2.8-1.5l3.2,0.2l1.6,1.8l1.9,0.5l2.2,2.1l5.9-0.8l22.2,8.9l9.2,5.7l-6.5,2.9l-9.9-0.8l-2.2,4l9,3.2l3.1-0.1
	l-6.4,11.4l0.4,4.4l4.3,9.4l4.3,3.7l8,4.1l1.8,1.4l2.9,1.4l2.3,0.4l0.4,0.4h1.2l0.3,1.1l-0.6,1.2l0.5,1.1l0.9,1.6l2.2,1.8l1.1,1
	l-0.1,0.8l-1.6,0.9l-0.1,0.8l-0.5,0.8l-1.3,1.3l-0.3,1.4l-0.3,0.5l-0.6,0.6l-0.5,0.7l-0.5,0.8l-1,0.6l-0.1,1.1v0.6l0.2,0.8l-1.1,1
	l-1.3,1.2l-0.2,1.4l0.9,1.8l0.7,1.8l1.1,1.7l1.1,1l1.5,2.2l1.2,0.9l1.3,0.8l1.2,0.8l1.7,0.5l2.2,0.7l1.3,0.1l1.7-0.4l3.1-1l3.4-1.6
	l3.9-2.4l6.1-4.2l3.4-7.5l2.9-7.1l5-3.7l3.5,0.3l4.9-0.1l3.4-0.3l5.4-1.4l10.2-7.3l5.9-4.2l7.5-8.1l3.9-7.7l22-8l4.4,6.2l1.1,5.6
	l4.2,20.7l-3.9,6.4l-6.2,10.2l-2,2.2l-6.3,6.9l-2,2.9l-5.4,8.6l-5.3,8.4l-5,10l-4.3,8.8l-2.2,7.1l-1.4,3.6l-2.5,3.1l-4.7,1.2
	l-3.7,0.9l-3.2,1.1l-7,2.3l-15.4,6.5l-3.7,2.4l-2.6,2.3l-1.2,1.4l-1.4,2.1l-2.2,4.1l-2.6,7.3l-1.7,5.8l-2,13.6v3.5v7.5l2.3,10.8
	l1.2,3.4l2.6,2.9l2.3,1.4l2.7,0.9l0.6,3.5l0.6,3.1l0.4,2.9l2.1,2.1l1.8,1.6l2.3,2.8l2.4,4l2.2,3.4l1.4,1.7l1.4,1.7l1.2,1.7l1.6,1.9
	l1.7,2.1l3,2.9l1.6,1.9l2.4,3.3l1.9,1.1l1.7,1.1l1.8,1.2l2.4,0.3l2.3,0.3h1.6l1.3-0.7l1.3-1.6l2.1,0.1l2.1,0.6l1.4-1.1l0.8,1
	l1.8,1.7l-0.1,2.8l-1.4,1.5l-1.3,1.1l-0.1,1.4l1.1,2.7l0.5,2l1.3,1.6l0.9,1l1.7,0.6l1.5-0.4l3.1,0.4l0.6,1l2.1,0.4l0.6,0.8l1.7,0.6
	l1.7,1.3l2.7,0.8l2.2-0.1l1.4,1.5l2.1,1.5l2.2,0.4l2.6,1.8l0.9,0.9l3,1.4l0.8,2.1l-1.3,2.2l-1,2.4l-0.7,1.4l-0.7,1l0.9,2.7l0.5,2.5
	l2,2.6l2.2,1.8l-1.9,5v4l-2.5,3.6l0.7,4.3l-0.2,4l-0.1,2.1l-3.4,0.2l-0.1,3.3l2.3,5.2l2,3.2l1.8,2.2l0.5,2.1l2.2,2.8l4.4,3.1
	l4.2,3.1l0.7,2.5l-0.1,2.1l-2.5-0.8l-2.9-1l-1.8,1.8l-0.5,2.7l-0.1,2.9l-1.5,1.6l-1.5,0.3l-2.2,2.1l-1.2,3.2l-0.8,4.6l-1.2,3.2
	l-0.1,3.5l0.7,4.5l0.3,2.5l-0.4,3.7l-2.4,3.2l-2.2,1.3l-4.3,1.2l-3,1.9l-1.1,1.6l-1.2,3.4l0.1,3.5l0.6,5.1l-1.5,4.8l-3.3,3.7
	l-3.1,3.5l-1.4,4.2l-2.6,2.1l-1.5,1.4l-0.1,3.5l-2.6,1.9l-4.4,2.2l-3.6,2.1l-2.6,1.7l-0.5,4.1l-1,2.7l2,3.5l-1.7,2.4l-2.9,2.9
	l-5.5,2.4l-7.8,4.4l-0.9,2.2l-3,1.3l0.2,5.9l-0.2,5.5l-10.6,1.5l-5.5-0.3l-3,2.7l-5.4,5.6l-5.3,4.8l-4.9,4l-2.6,1.1l-0.2,4.2
	l-2.6,1.1l-8-1.3l-2.7,4.1l-2.6,1.9l-3.5,3.5l-6,0.1l-2.6,2.7l-2.6,2.7l-5.7,2.6l-5.2,1.8l-1.8,3.2l-0.2,5.5l-1,5l-4.3,10.2
	l-0.3,7.1l0.6,6.3l0.4,9.6l0.6,10.5l2.5,3.7l4.8,6.8l5.9,8.4l3.1,2.9l3.2,3l2.8,2.7l6,5.7l7.3,6.4l2.6,2.2l3.6,2.5l5.2,2.3l10.1,4
	l3.2,2.1l7.9-1.9l11.4-4l4-2.2l4.2-3.1l5.4-1.9l3.2,1.5l1.3,4.4l-1.1,13.2l6.4-1.2l-0.2,5.9l-0.6,4.6l-7,5.5l-2.4,5.7l9.1,3.2
	l24-11.1l3-5.5l-1.4-4.7l-2.8-3.6l4.8-2.9l7-1.2l7,2l4.6,2.3l3.5,3.3l1.9,3l2.3,4.9l1.1,4.9l-0.1,5.3l-1.5,5.7l-0.4,5.5l1.8,15.4
	l1.2,10.3l8.1,13.5l25.5,4.9l3.3,0.2l10.1-1.3l7.6,0.2l6.7,2.9l-0.2,4.4l-0.4,3.7l-0.8,4.2l-1.8,5l-1.6,5.6l-1.5,17.9l-1,14.1
	l-1.6,38l0.9,5.1l3.2,4.3l3.4,3.1l3,2.4l3.2,3.9l3.2,7.6l0.2,5.8L1529.2,929.4z"/>
</svg>
